<svg fill="none" height="24" width="24" xmlns="http://www.w3.org/2000/svg"><path clip-rule="evenodd" d="M10.975 1.275a1.5 1.5 0 0 1 2.05 0l2.326 2.176a.5.5 0 0 0 .325.135l3.184.105a1.5 1.5 0 0 1 1.45 1.45l.105 3.183a.5.5 0 0 0 .134.325l2.177 2.326a1.5 1.5 0 0 1 0 2.05l-2.177 2.326a.5.5 0 0 0-.134.325l-.106 3.183a1.5 1.5 0 0 1-1.45 1.45l-3.183.105a.5.5 0 0 0-.325.135l-2.326 2.177a1.5 1.5 0 0 1-2.05 0L8.65 20.549a.5.5 0 0 0-.325-.135L5.14 20.31a1.5 1.5 0 0 1-1.45-1.45l-.105-3.183a.5.5 0 0 0-.134-.325l-2.177-2.326a1.5 1.5 0 0 1 0-2.05l2.177-2.326a.5.5 0 0 0 .134-.325l.106-3.183a1.5 1.5 0 0 1 1.45-1.45l3.183-.105a.5.5 0 0 0 .325-.135l2.325-2.176Zm1.367.73a.5.5 0 0 0-.683 0L9.333 4.18a1.5 1.5 0 0 1-.975.404l-3.184.106a.5.5 0 0 0-.483.483l-.105 3.183a1.5 1.5 0 0 1-.404.976l-2.177 2.325a.5.5 0 0 0 0 .684l2.177 2.325a1.5 1.5 0 0 1 .404.976l.105 3.183a.5.5 0 0 0 .483.483l3.184.106a1.5 1.5 0 0 1 .975.404l2.326 2.176a.5.5 0 0 0 .683 0l2.326-2.176a1.5 1.5 0 0 1 .975-.404l3.184-.106a.5.5 0 0 0 .483-.483l.105-3.183a1.5 1.5 0 0 1 .404-.976l2.177-2.325a.5.5 0 0 0 0-.684l-2.177-2.325a1.5 1.5 0 0 1-.404-.976l-.105-3.183a.5.5 0 0 0-.483-.483l-3.184-.106a1.5 1.5 0 0 1-.975-.404l-2.326-2.176Z" fill="#000" fill-rule="evenodd"/><path clip-rule="evenodd" d="M10.2 6.655A6.492 6.492 0 0 1 13 12a6.493 6.493 0 0 1-2.8 5.345 5.5 5.5 0 1 0 0-10.69ZM8.79 6.09a6.5 6.5 0 1 1 0 11.82.5.5 0 0 1 0-.909 5.5 5.5 0 0 0 0-10.003.5.5 0 0 1 0-.908Z" fill="#000" fill-rule="evenodd"/></svg>